<mxfile host="65bd71144e">
    <diagram id="OsUZOwieOMG9uOXlbDVL" name="第 1 页">
        <mxGraphModel dx="1036" dy="561" grid="1" gridSize="10" guides="1" tooltips="1" connect="1" arrows="1" fold="1" page="1" pageScale="1" pageWidth="827" pageHeight="1169" background="#ffffff" math="0" shadow="0">
            <root>
                <mxCell id="0"/>
                <mxCell id="1" parent="0"/>
                <mxCell id="12" value="" style="rounded=1;whiteSpace=wrap;html=1;fillStyle=auto;strokeColor=#A6A6A6;strokeWidth=3;fontSize=18;fillColor=#F2F2F2;" vertex="1" parent="1">
                    <mxGeometry x="20" y="10" width="360" height="140" as="geometry"/>
                </mxCell>
                <mxCell id="5" value="&lt;font style=&quot;font-size: 18px;&quot;&gt;声音源&lt;/font&gt;" style="ellipse;whiteSpace=wrap;html=1;fillStyle=auto;strokeWidth=3;strokeColor=#A6A6A6;fillColor=#FFFFFF;fontColor=#333333;" vertex="1" parent="1">
                    <mxGeometry x="40" y="40" width="80" height="80" as="geometry"/>
                </mxCell>
                <mxCell id="6" value="图像源" style="ellipse;whiteSpace=wrap;html=1;aspect=fixed;fillStyle=auto;strokeColor=#FFFFFF;strokeWidth=3;fontSize=18;fillColor=#F2F2F2;fontColor=#333333;" vertex="1" parent="1">
                    <mxGeometry x="160" y="40" width="80" height="80" as="geometry"/>
                </mxCell>
                <mxCell id="7" value="其它传感器数据" style="ellipse;whiteSpace=wrap;html=1;aspect=fixed;fillStyle=auto;strokeColor=#666666;strokeWidth=3;fontSize=18;fillColor=#f5f5f5;fontColor=#333333;" vertex="1" parent="1">
                    <mxGeometry x="280" y="40" width="80" height="80" as="geometry"/>
                </mxCell>
                <mxCell id="8" value="网络节点" style="rounded=1;whiteSpace=wrap;html=1;fillStyle=auto;strokeColor=#666666;strokeWidth=3;fontSize=18;fillColor=#f5f5f5;fontColor=#333333;" vertex="1" parent="1">
                    <mxGeometry x="160" y="280" width="80" height="80" as="geometry"/>
                </mxCell>
                <mxCell id="13" value="" style="shape=flexArrow;endArrow=classic;startArrow=classic;html=1;strokeColor=#030303;fontSize=18;entryX=0.5;entryY=1;entryDx=0;entryDy=0;exitX=0.5;exitY=0;exitDx=0;exitDy=0;strokeWidth=3;" edge="1" parent="1" source="8" target="12">
                    <mxGeometry width="100" height="100" relative="1" as="geometry">
                        <mxPoint x="100" y="270" as="sourcePoint"/>
                        <mxPoint x="200" y="170" as="targetPoint"/>
                        <Array as="points"/>
                    </mxGeometry>
                </mxCell>
                <mxCell id="14" value="" style="rounded=1;whiteSpace=wrap;html=1;fillStyle=auto;strokeColor=#A6A6A6;strokeWidth=3;fontSize=18;fillColor=#F2F2F2;" vertex="1" parent="1">
                    <mxGeometry x="70" y="440" width="480" height="480" as="geometry"/>
                </mxCell>
                <mxCell id="19" value="&lt;font style=&quot;font-size: 14px;&quot; color=&quot;#000000&quot;&gt;数据预处理&lt;/font&gt;" style="rounded=1;whiteSpace=wrap;html=1;fillStyle=auto;strokeColor=#A6A6A6;strokeWidth=3;fontSize=18;fillColor=#F2F2F2;" vertex="1" parent="1">
                    <mxGeometry x="140" y="460" width="80" height="60" as="geometry"/>
                </mxCell>
                <mxCell id="20" value="记忆模块" style="rounded=1;whiteSpace=wrap;html=1;fillStyle=auto;strokeColor=#A6A6A6;strokeWidth=3;fontSize=14;fontColor=#000000;fillColor=#F2F2F2;" vertex="1" parent="1">
                    <mxGeometry x="100" y="700" width="160" height="140" as="geometry"/>
                </mxCell>
                <mxCell id="21" value="数据输出" style="rounded=1;whiteSpace=wrap;html=1;fillStyle=auto;strokeColor=#A6A6A6;strokeWidth=3;fontSize=14;fontColor=#000000;fillColor=#F2F2F2;" vertex="1" parent="1">
                    <mxGeometry x="350" y="460" width="80" height="60" as="geometry"/>
                </mxCell>
                <mxCell id="22" value="终端" style="text;html=1;strokeColor=none;fillColor=none;align=center;verticalAlign=middle;whiteSpace=wrap;rounded=0;fillStyle=auto;strokeWidth=3;fontSize=14;fontColor=#000000;" vertex="1" parent="1">
                    <mxGeometry x="170" y="10" width="60" height="30" as="geometry"/>
                </mxCell>
                <mxCell id="23" value="数据生成" style="rounded=1;whiteSpace=wrap;html=1;fillStyle=auto;strokeColor=#A6A6A6;strokeWidth=3;fontSize=14;fontColor=#000000;fillColor=#F2F2F2;" vertex="1" parent="1">
                    <mxGeometry x="320" y="590" width="170" height="250" as="geometry"/>
                </mxCell>
                <mxCell id="24" value="" style="shape=flexArrow;endArrow=classic;html=1;strokeColor=#030303;strokeWidth=3;fontSize=14;fontColor=#000000;exitX=0.5;exitY=1;exitDx=0;exitDy=0;entryX=0.5;entryY=0;entryDx=0;entryDy=0;" edge="1" parent="1" source="19" target="20">
                    <mxGeometry width="50" height="50" relative="1" as="geometry">
                        <mxPoint x="180" y="630" as="sourcePoint"/>
                        <mxPoint x="230" y="580" as="targetPoint"/>
                        <Array as="points">
                            <mxPoint x="180" y="610"/>
                        </Array>
                    </mxGeometry>
                </mxCell>
                <mxCell id="25" value="" style="shape=flexArrow;endArrow=classic;html=1;strokeColor=#030303;strokeWidth=3;fontSize=14;fontColor=#000000;entryX=0.024;entryY=0.171;entryDx=0;entryDy=0;entryPerimeter=0;" edge="1" parent="1" target="23">
                    <mxGeometry width="50" height="50" relative="1" as="geometry">
                        <mxPoint x="170" y="630" as="sourcePoint"/>
                        <mxPoint x="280" y="630" as="targetPoint"/>
                    </mxGeometry>
                </mxCell>
                <mxCell id="27" value="" style="shape=flexArrow;endArrow=classic;startArrow=classic;html=1;strokeColor=#030303;strokeWidth=3;fontSize=14;fontColor=#000000;exitX=1;exitY=0.5;exitDx=0;exitDy=0;entryX=0.014;entryY=0.704;entryDx=0;entryDy=0;entryPerimeter=0;" edge="1" parent="1" source="20" target="23">
                    <mxGeometry width="100" height="100" relative="1" as="geometry">
                        <mxPoint x="320" y="870" as="sourcePoint"/>
                        <mxPoint x="420" y="770" as="targetPoint"/>
                    </mxGeometry>
                </mxCell>
                <mxCell id="28" value="" style="shape=flexArrow;endArrow=classic;html=1;strokeColor=#030303;strokeWidth=3;fontSize=14;fontColor=#000000;entryX=0.5;entryY=1;entryDx=0;entryDy=0;exitX=0.406;exitY=-0.002;exitDx=0;exitDy=0;exitPerimeter=0;" edge="1" parent="1" source="23" target="21">
                    <mxGeometry width="50" height="50" relative="1" as="geometry">
                        <mxPoint x="370" y="610" as="sourcePoint"/>
                        <mxPoint x="420" y="560" as="targetPoint"/>
                    </mxGeometry>
                </mxCell>
                <mxCell id="29" value="" style="shape=flexArrow;endArrow=classic;html=1;strokeColor=#030303;strokeWidth=3;fontSize=14;fontColor=#000000;exitX=0.5;exitY=1;exitDx=0;exitDy=0;entryX=0.5;entryY=0;entryDx=0;entryDy=0;" edge="1" parent="1" source="8" target="19">
                    <mxGeometry width="50" height="50" relative="1" as="geometry">
                        <mxPoint x="180" y="440" as="sourcePoint"/>
                        <mxPoint x="230" y="390" as="targetPoint"/>
                    </mxGeometry>
                </mxCell>
                <mxCell id="30" value="" style="shape=flexArrow;endArrow=classic;html=1;strokeColor=#030303;strokeWidth=3;fontSize=14;fontColor=#000000;exitX=0.5;exitY=0;exitDx=0;exitDy=0;entryX=1;entryY=0.5;entryDx=0;entryDy=0;" edge="1" parent="1" source="21" target="8">
                    <mxGeometry width="50" height="50" relative="1" as="geometry">
                        <mxPoint x="330" y="450" as="sourcePoint"/>
                        <mxPoint x="380" y="400" as="targetPoint"/>
                    </mxGeometry>
                </mxCell>
            </root>
        </mxGraphModel>
    </diagram>
</mxfile>